<svg xmlns="http://www.w3.org/2000/svg" width="64" height="64" viewBox="0 0 64 64">
  <rect x="2" y="2" width="60" height="60" rx="11" fill="#CC99CC"/>
  <rect x="12" y="12" width="48" height="48" rx="7" fill="#000"/>
  <rect x="2" y="42" width="10" height="2.5" fill="#000"/>
  <rect x="42" y="2" width="2.5" height="10" fill="#000"/>
  <g transform="translate(18 18) scale(1.5)" fill="none" stroke="#CC99CC" color="#CC99CC"
     stroke-width="2" stroke-linecap="round" stroke-linejoin="round"><path d="M12 3a9 9 0 1 0 0 18c1.5 0 2-1 2-2s-1-2 0-3h3a4 4 0 0 0 4-4c0-5-4-9-9-9Z"/><circle cx="7.5" cy="11" r="1.2" fill="currentColor"/><circle cx="10" cy="7" r="1.2" fill="currentColor"/><circle cx="15" cy="7" r="1.2" fill="currentColor"/></g>
</svg>
